<svg width="20" height="20" viewBox="0 0 20 20" fill="14B7A6" xmlns="http://www.w3.org/2000/svg">
<path d="M14.9163 5.85696C14.2806 5.8582 13.7636 5.34342 13.7624 4.70764C13.7611 4.07187 14.2759 3.55491 14.912 3.55367C15.5481 3.55243 16.065 4.06751 16.0663 4.70329C16.0672 5.33906 15.5524 5.85571 14.9163 5.85696Z" fill="#14B7A6"/>
<path fill-rule="evenodd" clip-rule="evenodd" d="M9.80937 14.7681C7.08746 14.7734 4.87628 12.5712 4.871 9.84858C4.8657 7.12664 7.06848 4.91511 9.79041 4.90982C12.5129 4.90453 14.7244 7.10798 14.7297 9.82962C14.735 12.5522 12.5316 14.7628 9.80937 14.7681ZM9.79383 6.63954C8.02712 6.64265 6.59695 8.07812 6.60006 9.84517C6.60348 11.6125 8.03925 13.0424 9.80596 13.039C11.5733 13.0355 13.0035 11.6004 13 9.83304C12.9966 8.06568 11.5609 6.63612 9.79383 6.63954Z" fill="#14B7A6"/>
<path fill-rule="evenodd" clip-rule="evenodd" d="M3.49556 0.756441C4.1052 0.517558 4.80286 0.353948 5.82432 0.305736C6.84828 0.256596 7.17517 0.245395 9.78169 0.24042C12.3888 0.235445 12.7157 0.245393 13.7397 0.290805C14.7615 0.334972 15.4594 0.496097 16.0703 0.732493C16.7023 0.976037 17.2386 1.30388 17.773 1.83608C18.3073 2.3689 18.6364 2.90328 18.883 3.53438C19.1216 4.14465 19.2852 4.8417 19.3338 5.8638C19.3823 6.88744 19.3941 7.21403 19.3991 9.8209C19.4041 12.4275 19.3935 12.7547 19.3487 13.7793C19.3042 14.8004 19.1434 15.4987 18.907 16.1093C18.6628 16.7413 18.3356 17.2776 17.8034 17.812C17.2712 18.3466 16.7363 18.6754 16.1052 18.9224C15.4949 19.1606 14.7978 19.3243 13.7764 19.3731C12.7524 19.4216 12.4255 19.4331 9.81809 19.4381C7.21187 19.4431 6.88498 19.4331 5.86103 19.388C4.83925 19.3432 4.14097 19.1824 3.53039 18.9463C2.89837 18.7018 2.36213 18.3749 1.82776 17.8424C1.29308 17.3099 0.963704 16.7752 0.717362 16.1441C0.478481 15.5342 0.315481 14.8368 0.266653 13.8156C0.217824 12.7914 0.206319 12.4642 0.201347 9.85761C0.196355 7.25074 0.206625 6.92415 0.251409 5.90018C0.296515 4.8781 0.456705 4.18011 0.693099 3.5689C0.937258 2.93717 1.26447 2.40124 1.79729 1.86656C2.32948 1.33219 2.86446 1.00247 3.49556 0.756441ZM4.15342 17.3336C4.49215 17.4639 5.00038 17.6194 5.93631 17.6602C6.94905 17.704 7.25231 17.7137 9.81497 17.7087C12.3786 17.704 12.6818 17.6931 13.6943 17.6455C14.6293 17.6011 15.1375 17.4437 15.4753 17.3118C15.9235 17.1367 16.2426 16.9273 16.5779 16.5917C16.9132 16.2549 17.1207 15.9348 17.2943 15.4866C17.4249 15.1475 17.5801 14.639 17.6208 13.703C17.6653 12.6909 17.6746 12.3873 17.6697 9.82401C17.665 7.26131 17.6541 6.95774 17.6059 5.94529C17.5617 5.00997 17.4047 4.50172 17.2725 4.16424C17.0974 3.71541 16.8887 3.3969 16.5521 3.06128C16.2156 2.72566 15.8955 2.51881 15.4467 2.34526C15.1086 2.21431 14.5997 2.0594 13.6644 2.01866C12.6517 1.97418 12.3481 1.96515 9.7848 1.97014C7.22214 1.97511 6.91888 1.98537 5.90644 2.03328C4.97083 2.07775 4.46321 2.23483 4.12479 2.36703C3.67689 2.54214 3.35777 2.75024 3.02216 3.0871C2.68716 3.42395 2.4797 3.7434 2.30614 4.19255C2.17614 4.53097 2.01967 5.03983 1.97956 5.97515C1.93538 6.98791 1.92606 7.29149 1.93103 9.85418C1.9357 12.4175 1.94658 12.7211 1.99418 13.7329C2.03803 14.6688 2.19634 15.1765 2.32792 15.5152C2.50303 15.9628 2.71175 16.2819 3.04798 16.6175C3.38484 16.9519 3.7049 17.16 4.15342 17.3336Z" fill="#14B7A6"/>
</svg>
