<svg width="21" height="20" viewBox="0 0 21 20" fill="none" xmlns="http://www.w3.org/2000/svg">
<path d="M1 19.8396L2.3496 14.9092C1.5168 13.466 1.0792 11.83 1.08 10.1524C1.0824 4.90765 5.3504 0.639648 10.5944 0.639648C13.1392 0.640448 15.528 1.63165 17.3248 3.43005C19.1208 5.22845 20.1096 7.61885 20.1088 10.1612C20.1064 15.4068 15.8384 19.6748 10.5944 19.6748C9.0024 19.674 7.4336 19.2748 6.044 18.5164L1 19.8396ZM6.2776 16.7941C7.6184 17.59 8.8984 18.0668 10.5912 18.0676C14.9496 18.0676 18.5 14.5204 18.5024 10.1596C18.504 5.79005 14.9704 2.24765 10.5976 2.24605C6.236 2.24605 2.688 5.79325 2.6864 10.1532C2.6856 11.9332 3.2072 13.266 4.0832 14.6604L3.284 17.5788L6.2776 16.7941ZM15.3872 12.4228C15.328 12.3236 15.1696 12.2644 14.9312 12.1452C14.6936 12.026 13.5248 11.4508 13.3064 11.3716C13.0888 11.2924 12.9304 11.2524 12.7712 11.4908C12.6128 11.7284 12.1568 12.2644 12.0184 12.4228C11.88 12.5812 11.7408 12.6012 11.5032 12.482C11.2656 12.3628 10.4992 12.1124 9.5912 11.302C8.8848 10.6716 8.4072 9.89325 8.2688 9.65485C8.1304 9.41725 8.2544 9.28845 8.3728 9.17005C8.48 9.06365 8.6104 8.89245 8.7296 8.75325C8.8504 8.61565 8.8896 8.51645 8.9696 8.35725C9.0488 8.19885 9.0096 8.05965 8.9496 7.94045C8.8896 7.82205 8.4144 6.65165 8.2168 6.17565C8.0232 5.71245 7.8272 5.77485 7.6816 5.76765L7.2256 5.75965C7.0672 5.75965 6.8096 5.81885 6.592 6.05725C6.3744 6.29565 5.76 6.87005 5.76 8.04045C5.76 9.21085 6.612 10.3412 6.7304 10.4996C6.8496 10.658 8.4064 13.0596 10.7912 14.0892C11.3584 14.334 11.8016 14.4804 12.1464 14.59C12.716 14.7708 13.2344 14.7452 13.644 14.6844C14.1008 14.6164 15.0504 14.1092 15.2488 13.554C15.4472 12.998 15.4472 12.522 15.3872 12.4228Z" fill="#14B7A6"/>
</svg>
