<svg xmlns="http://www.w3.org/2000/svg" width="95" height="95" viewBox="0 0 95 95" fill="none">
  <path d="M43.2209 4.93487C42.5027 2.81863 40.2293 1.61157 38.1894 2.52444C35.3823 3.78066 32.8201 5.47585 30.6204 7.54354C27.4748 10.5004 25.1677 14.1277 23.9035 18.1042C22.6393 22.0806 22.457 26.2835 23.3728 30.3406C24.2886 34.3976 26.2742 38.1835 29.1537 41.363C32.0332 44.5425 35.7178 47.0174 39.881 48.5685C44.0442 50.1196 48.5575 50.699 53.0212 50.2553C57.4849 49.8117 61.7612 48.3588 65.4713 46.0252C67.8024 44.559 69.8647 42.7737 71.5918 40.7381C73.2441 38.7906 72.3423 35.9364 70.0422 34.8263V34.8263C67.9464 33.8147 65.4599 34.6539 63.8568 36.3408C62.8431 37.4074 61.6841 38.3559 60.4043 39.1609C57.9171 40.7253 55.0503 41.6993 52.0579 41.9967C49.0655 42.2941 46.0399 41.9057 43.2489 40.8659C40.458 39.8261 37.988 38.1669 36.0576 36.0355C34.1272 33.904 32.7961 31.366 32.1822 28.6462C31.5683 25.9264 31.6904 23.1089 32.5379 20.4431C33.3854 17.7774 34.932 15.3457 37.0408 13.3635C38.1089 12.3595 39.3045 11.4865 40.5976 10.7614C42.677 9.59551 43.9871 7.1924 43.2209 4.93487V4.93487Z" fill="#00CBA9"/>
  <path d="M43.9144 47.1615C41.6827 46.6723 39.3701 47.9318 39.1123 50.2019C38.7586 53.316 39.234 56.47 40.5302 59.4534C42.3723 63.6934 45.7856 67.3898 50.3203 70.0556C54.855 72.7214 60.2983 74.2315 65.933 74.3868C71.5677 74.5422 77.1294 73.3355 81.8851 70.9258C86.6408 68.5161 90.3674 65.0164 92.5738 60.888C94.7803 56.7596 95.363 52.1962 94.2453 47.799C93.1275 43.4018 90.3617 39.3773 86.3124 36.2557C83.0905 33.7721 79.1765 31.9528 74.9115 30.9353C73.0409 30.489 71.2517 31.7655 70.8511 33.6464V33.6464C70.4051 35.7403 71.8519 37.7427 73.8905 38.3965C76.1206 39.1117 78.1684 40.1661 79.9134 41.5113C82.628 43.6039 84.4821 46.3019 85.2315 49.2497C85.9808 52.1975 85.5901 55.2567 84.111 58.0243C82.6318 60.792 80.1335 63.1381 76.9454 64.7535C73.7573 66.3689 70.0288 67.1778 66.2514 67.0737C62.474 66.9696 58.8249 65.9573 55.7849 64.1702C52.7449 62.3831 50.4567 59.905 49.2218 57.0626C48.6826 55.8215 48.3553 54.5364 48.2412 53.241C48.0043 50.5529 46.5504 47.7394 43.9144 47.1615V47.1615Z" fill="#00CBA9"/>
  <path d="M6.68558 50.2181C4.28687 49.1273 3.29411 46.1872 5.07675 44.2467C6.45643 42.7448 8.07833 41.4325 9.89468 40.3591C13.1676 38.4247 16.9502 37.3374 20.8421 37.2123C24.734 37.0872 28.5904 37.9289 32.0031 39.6483C35.4159 41.3677 38.2581 43.9009 40.2289 46.9797C42.1997 50.0586 43.2259 53.5686 43.1987 57.1382C43.1715 60.7079 42.0921 64.2044 40.0746 67.2578C38.0572 70.3111 35.1767 72.8077 31.7381 74.4833C29.567 75.5413 27.2245 76.2471 24.8134 76.5797C22.4762 76.9021 20.6439 74.8557 20.7699 72.4998V72.4998C20.8945 70.172 22.9149 68.4485 25.1617 67.8273C25.9295 67.615 26.676 67.3338 27.3901 66.9858C29.3541 66.0287 30.9993 64.6028 32.1516 62.8589C33.3039 61.1149 33.9204 59.1178 33.9359 57.079C33.9514 55.0402 33.3653 53.0354 32.2397 51.2769C31.1141 49.5184 29.4907 48.0715 27.5415 47.0895C25.5923 46.1074 23.3897 45.6267 21.1668 45.6982C18.9439 45.7696 16.7835 46.3906 14.9141 47.4955C14.3074 47.854 13.7387 48.2592 13.2135 48.7054C11.3927 50.2522 8.86035 51.2071 6.68558 50.2181V50.2181Z" fill="#00CBA9"/>
  <path d="M6.68558 50.2181C4.28687 49.1273 3.29411 46.1872 5.07675 44.2467C6.45643 42.7448 8.07833 41.4325 9.89468 40.3591C13.1676 38.4247 16.9502 37.3374 20.8421 37.2123C24.734 37.0872 28.5904 37.9289 32.0031 39.6483C35.4159 41.3677 38.2581 43.9009 40.2289 46.9797C42.1997 50.0586 43.2259 53.5686 43.1987 57.1382C43.1715 60.7079 42.0921 64.2044 40.0746 67.2578C38.0572 70.3111 35.1767 72.8077 31.7381 74.4833C29.567 75.5413 27.2245 76.2471 24.8134 76.5797C22.4762 76.9021 20.6439 74.8557 20.7699 72.4998V72.4998C20.8945 70.172 22.9149 68.4485 25.1617 67.8273C25.9295 67.615 26.676 67.3338 27.3901 66.9858C29.3541 66.0287 30.9993 64.6028 32.1516 62.8589C33.3039 61.1149 33.9204 59.1178 33.9359 57.079C33.9514 55.0402 33.3653 53.0354 32.2397 51.2769C31.1141 49.5184 29.4907 48.0715 27.5415 47.0895C25.5923 46.1074 23.3897 45.6267 21.1668 45.6982C18.9439 45.7696 16.7835 46.3906 14.9141 47.4955C14.3074 47.854 13.7387 48.2592 13.2135 48.7054C11.3927 50.2522 8.86035 51.2071 6.68558 50.2181V50.2181Z" fill="#00CBA9"/>
  <g filter="url(#filter0_biiii_9_2363)">
    <path  fill-rule="evenodd" clip-rule="evenodd" d="M28.6366 32.9443C26.4139 33.7463 23.9039 32.6742 23.3807 30.3699C22.4892 26.4442 22.6215 22.3577 23.7963 18.4543C25.3778 13.1999 28.7631 8.56075 33.4441 5.23354C38.1251 1.90634 43.849 0.070616 49.7565 0.00199615C55.664 -0.0666237 61.4361 1.63557 66.2063 4.85299C70.9765 8.07041 74.4873 12.6294 76.2115 17.8455C77.9357 23.0615 77.7803 28.6532 75.7686 33.7807C73.7569 38.9083 69.9975 43.2952 65.0549 46.2826C61.2891 48.5587 56.9913 49.9288 52.5506 50.2983C50.2476 50.4899 48.4876 48.4671 48.6474 46.1616C48.8049 43.8891 50.7798 42.213 53.0325 41.8754C55.5488 41.4983 57.9675 40.6377 60.1255 39.3334C63.439 37.3307 65.9592 34.3898 67.3078 30.9524C68.6564 27.5149 68.7606 23.7664 67.6047 20.2697C66.4488 16.7729 64.0953 13.7166 60.8974 11.5597C57.6996 9.40282 53.83 8.2617 49.8697 8.3077C45.9095 8.3537 42.0722 9.58434 38.9342 11.8148C35.7961 14.0453 33.5266 17.1553 32.4665 20.6778C31.8616 22.6875 31.669 24.7696 31.8829 26.8197C32.1477 29.3576 31.0368 32.0783 28.6366 32.9443ZM29.4739 43.5698C30.744 41.4034 29.9045 38.5757 27.4735 37.9461C25.2231 37.3632 22.8743 37.1165 20.5181 37.2249C16.5874 37.4056 12.7853 38.5673 9.5224 40.5845C6.25952 42.6017 3.65987 45.3977 2.00426 48.6706C0.34864 51.9435 -0.300023 55.5688 0.128331 59.155C0.556685 62.7413 2.04577 66.152 4.43476 69.019C6.82375 71.8859 10.0218 74.1001 13.6836 75.4223C17.3454 76.7445 21.3316 77.1245 25.2118 76.5212C27.4661 76.1708 29.6348 75.4962 31.6412 74.5305C33.964 73.4126 34.1828 70.3854 32.4172 68.5071C30.8538 66.8441 28.2852 66.7372 26.1395 67.5155C25.3438 67.8042 24.514 68.0174 23.6629 68.1497C21.4467 68.4942 19.1699 68.2772 17.0785 67.522C14.9871 66.7668 13.1604 65.5022 11.796 63.8647C10.4315 62.2273 9.58096 60.2792 9.3363 58.2309C9.09165 56.1826 9.46213 54.1119 10.4078 52.2426C11.3534 50.3733 12.8382 48.7763 14.7018 47.6241C16.5654 46.472 18.737 45.8085 20.9821 45.7053C21.8673 45.6646 22.7508 45.7116 23.6176 45.8433C25.8581 46.1838 28.3276 45.5249 29.4739 43.5698ZM48.4798 62.2509C47.7064 62.673 47.1264 63.2951 46.7715 63.9979C46.4133 64.6287 46.2095 65.3587 46.2116 66.1361L46.2756 89.9102C46.282 92.2921 48.2182 94.2179 50.6001 94.2115C52.9821 94.2051 54.9078 92.2689 54.9014 89.887L54.8539 72.2242C57.9717 73.4117 61.3455 74.1301 64.8046 74.3374C68.9697 74.587 73.1522 74.0893 77.0433 72.8809C80.9345 71.6726 84.435 69.7845 87.2866 67.3559C90.1382 64.9273 92.2681 62.0203 93.5192 58.8493C94.7702 55.6782 95.1105 52.3242 94.5149 49.0345C93.9193 45.7449 92.403 42.6036 90.0779 39.8425C88.3752 37.8205 86.2706 36.0402 83.8531 34.5685C82.2895 33.6166 80.2968 34.1389 79.2063 35.6092C77.7589 37.5604 78.5018 40.3306 80.3744 41.8784C81.1339 42.5061 81.8249 43.1876 82.4381 43.9158C83.9968 45.7668 85.0133 47.8726 85.4126 50.0779C85.8118 52.2833 85.5837 54.5318 84.745 56.6576C83.9063 58.7834 82.4785 60.7322 80.5668 62.3603C78.6552 63.9884 76.3085 65.2541 73.6999 66.0642C71.0914 66.8742 68.2875 67.2079 65.4953 67.0405C62.703 66.8732 59.9936 66.2091 57.567 65.0973C56.2558 64.4966 55.0453 63.7734 53.9596 62.9456C52.3768 61.7388 50.227 61.2976 48.4798 62.2509Z" fill="url(#paint0_linear_9_2363)"/>
  </g>
  <defs>
    <filter id="filter0_biiii_9_2363" x="-21" y="-21" width="136.8" height="136.212" filterUnits="userSpaceOnUse" color-interpolation-filters="sRGB">
      <feFlood flood-opacity="0" result="BackgroundImageFix"/>
      <feGaussianBlur in="BackgroundImageFix" stdDeviation="10.5"/>
      <feComposite in2="SourceAlpha" operator="in" result="effect1_backgroundBlur_9_2363"/>
      <feBlend mode="normal" in="SourceGraphic" in2="effect1_backgroundBlur_9_2363" result="shape"/>
      <feColorMatrix in="SourceAlpha" type="matrix" values="0 0 0 0 0 0 0 0 0 0 0 0 0 0 0 0 0 0 127 0" result="hardAlpha"/>
      <feOffset dx="10" dy="10"/>
      <feGaussianBlur stdDeviation="11.5"/>
      <feComposite in2="hardAlpha" operator="arithmetic" k2="-1" k3="1"/>
      <feColorMatrix type="matrix" values="0 0 0 0 0 0 0 0 0 0.796078 0 0 0 0 0.662745 0 0 0 0.18 0"/>
      <feBlend mode="normal" in2="shape" result="effect2_innerShadow_9_2363"/>
      <feColorMatrix in="SourceAlpha" type="matrix" values="0 0 0 0 0 0 0 0 0 0 0 0 0 0 0 0 0 0 127 0" result="hardAlpha"/>
      <feOffset dy="2"/>
      <feGaussianBlur stdDeviation="3"/>
      <feComposite in2="hardAlpha" operator="arithmetic" k2="-1" k3="1"/>
      <feColorMatrix type="matrix" values="0 0 0 0 1 0 0 0 0 1 0 0 0 0 1 0 0 0 0.05 0"/>
      <feBlend mode="normal" in2="effect2_innerShadow_9_2363" result="effect3_innerShadow_9_2363"/>
      <feColorMatrix in="SourceAlpha" type="matrix" values="0 0 0 0 0 0 0 0 0 0 0 0 0 0 0 0 0 0 127 0" result="hardAlpha"/>
      <feOffset dy="1"/>
      <feComposite in2="hardAlpha" operator="arithmetic" k2="-1" k3="1"/>
      <feColorMatrix type="matrix" values="0 0 0 0 1 0 0 0 0 1 0 0 0 0 1 0 0 0 0.05 0"/>
      <feBlend mode="normal" in2="effect3_innerShadow_9_2363" result="effect4_innerShadow_9_2363"/>
      <feColorMatrix in="SourceAlpha" type="matrix" values="0 0 0 0 0 0 0 0 0 0 0 0 0 0 0 0 0 0 127 0" result="hardAlpha"/>
      <feOffset dy="-10"/>
      <feGaussianBlur stdDeviation="5"/>
      <feComposite in2="hardAlpha" operator="arithmetic" k2="-1" k3="1"/>
      <feColorMatrix type="matrix" values="0 0 0 0 0 0 0 0 0 0.796078 0 0 0 0 0.662745 0 0 0 0.4 0"/>
      <feBlend mode="overlay" in2="effect4_innerShadow_9_2363" result="effect5_innerShadow_9_2363"/>
    </filter>
    <linearGradient  id="paint0_linear_9_2363" x1="47.4" y1="0" x2="47.4" y2="153" gradientUnits="userSpaceOnUse">
      <stop stop-color="#00CBA9" stop-opacity="0.01"/>
      <stop offset="1" stop-color="#00CBA9" stop-opacity="0.12"/>
    </linearGradient>
  </defs>
</svg>
